<?xml-stylesheet href="defaultstyles.css" type="text/css"?>
<svg xmlns="http://www.w3.org/2000/svg" xmlns:d="http://www.mathworks.com/blockgraphics" xmlns:xlink="http://www.w3.org/1999/xlink" version="1.1" id="svg_1" width="378" height="400" d:options="PreserveAspect:On;ScalingOnResizeMax:2.0;Rotate:Off;Resize:FitToBlock">
	<g id="part_2" title="part_0" ie-ports="left:,top:,right:simulink*simulink,bottom:">
		<path id="ellipse_220" class="path" style="fill:rgb(255, 255, 255);" d=" M 85.5,72 C 87.9852813741,72 90,76.0294372518 90,81 C 90,85.9705627482 90,90 85.5,90 C 81,90 81,85.9705627482 81,81 C 81,76.0294372518 83.0147186259,72 85.5,72 Z"/>
		<path id="ellipse_221" class="path" style="fill:rgb(255, 255, 255);" d=" M 292.5,72 C 294.9852813741,72 297,76.0294372518 297,81 C 297,85.9705627482 297,90 292.5,90 C 288,90 288,85.9705627482 288,81 C 288,76.0294372518 290.0147186259,72 292.5,72 Z"/>
		<path id="ellipse_222" class="path" style="fill:rgb(255, 255, 255);" d=" M 292.5,126 C 294.9852813741,126 297,130.0294372518 297,135 C 297,139.9705627482 297,144 292.5,144 C 288,144 288,139.9705627482 288,135 C 288,130.0294372518 290.0147186259,126 292.5,126 Z"/>
		<path id="ellipse_219" class="path" style="fill:rgb(255, 255, 255);" d=" M 85.5,126 C 87.9852813741,126 90,130.0294372518 90,135 C 90,139.9705627482 90,144 85.5,144 C 81,144 81,139.9705627482 81,135 C 81,130.0294372518 83.0147186259,126 85.5,126 Z"/>
		<rect id="rect_34" class="rect" x="144" y="54" width="90" height="27" rx="0" ry="0"/>
		<rect id="rect_35" class="rect" x="144" y="81" width="90" height="27" rx="0" ry="0"/>
		<path id="rect_36" class="path" style="fill:rgb(255, 255, 255);" d=" M 144.0029717260067,107.99625183105469 L 233.9988657452638,107.99625183105469 L 233.9988657452638,134.99625183105468 L 144.0029717260067,134.99625183105468 L 144.0029717260067,121.99625183105469 L 144.0029717260067,107.99625183105469 Z"/>
		<path id="Triangle" class="path" style="fill:#ffffff;" d=" M 143.99771118164062,107.99625183105469 L 143.99771118164062,125.9997783988603 L 143.99771118164062,125.9997783988603 L 143.99771118164062,107.99625183105469 Z"/>
		<path id="Triangle_38" class="path" style="fill:#ffffff;" d=" M 143.99771118164062,107.99625183105469 L 143.99771118164062,134.99625183105468 L 53.997711181640625,134.99625183105468 L 143.99771118164062,107.99625183105469 Z"/>
		<path id="Triangle_40" class="path" style="fill:#ffffff;" d=" M 143.99778350830078,54.000217590332035 L 143.99778350830078,81.00021759033203 L 53.99778350830078,81.00021759033203 L 143.99778350830078,54.000217590332035 Z"/>
		<path id="Triangle_41" class="path" style="fill:#ffffff;" d=" M 233.99771118164062,107.99625183105469 L 287.6377258300781,124.08624816894532 L 323.9977111816406,134.99625183105468 L 233.99771118164062,134.99625183105468 L 233.99771118164062,107.99625183105469 Z"/>
		<path id="Triangle_43" class="path" style="fill:#ffffff;" d=" M 233.99631835937498,54.00272735595703 L 287.63631835937497,70.09272735595704 L 323.996318359375,81.00272735595703 L 233.99631835937498,81.00272735595703 L 233.99631835937498,54.00272735595703 Z"/>
		<line id="line_89" class="line" x1="144" y1="135" x2="90" y2="360"/>
		<line id="line_120" class="line" x1="234" y1="135" x2="288" y2="360"/>
		<line id="line_152" class="line" x1="90" y1="360" x2="243" y2="171"/>
		<line id="line_199" class="line" x1="288" y1="360" x2="135" y2="171"/>
	</g>
</svg>
