<?xml version="1.0" encoding="UTF-8" standalone="no"?>
<!-- Uploaded to SVGRepo https://www.svgrepo.com -->

<svg
   version="1.1"
   id="Layer_1"
   x="0px"
   y="0px"
   width="316"
   height="300"
   viewBox="0 0 316 300"
   enable-background="new 0 0 260 244"
   xml:space="preserve"
   sodipodi:docname="PainelSolar.svg"
   inkscape:version="1.1 (c68e22c387, 2021-05-23)"
   xmlns:inkscape="http://www.inkscape.org/namespaces/inkscape"
   xmlns:sodipodi="http://sodipodi.sourceforge.net/DTD/sodipodi-0.dtd"
   xmlns="http://www.w3.org/2000/svg"
   xmlns:svg="http://www.w3.org/2000/svg"><defs
   id="defs7" /><sodipodi:namedview
   id="namedview5"
   pagecolor="#ffffff"
   bordercolor="#666666"
   borderopacity="1.0"
   inkscape:pageshadow="2"
   inkscape:pageopacity="0.0"
   inkscape:pagecheckerboard="0"
   showgrid="false"
   inkscape:zoom="1.8422131"
   inkscape:cx="58.62514"
   inkscape:cy="181.57508"
   inkscape:window-width="1920"
   inkscape:window-height="1057"
   inkscape:window-x="-8"
   inkscape:window-y="-8"
   inkscape:window-maximized="1"
   inkscape:current-layer="Layer_1"
   height="245px"
   fit-margin-top="30"
   fit-margin-left="30"
   fit-margin-right="30"
   fit-margin-bottom="30"
   lock-margins="true" />
<g
   id="g1016"
   transform="translate(28,28)"><path
     id="path2"
     style="fill:#2d89cc;fill-opacity:0.943182"
     d="m 26,229 v 9 h -6 v 4 h 16 v -4 h -6 v -9 z" /><path
     id="path5632"
     style="fill:#2d89cc;fill-opacity:0.943182"
     d="m 97,221 v 16 H 86 v 5 h 27 v -5 h -11 v -16 z" /><path
     id="path5630"
     style="fill:#2d89cc;fill-opacity:0.943182"
     d="m 196,214 v 22 h -16 v 6 h 37 v -6 h -15 v -22 z" /><path
     id="path5628"
     style="fill:#2d89cc;fill-opacity:0.943182"
     d="m 33.40625,210 -3.837891,15 h 9.525391 l 3.857422,-15 z" /><path
     id="path5626"
     style="fill:#2d89cc;fill-opacity:0.943182"
     d="m 19.6875,210 -3.837891,15 h 9.591797 l 3.837891,-15 z" /><path
     id="path5624"
     style="fill:#2d89cc;fill-opacity:0.943182"
     d="M 5.8574219,210 2,225 h 9.720703 l 3.839844,-15 z" /><path
     id="path5622"
     style="fill:#2d89cc;fill-opacity:0.943182"
     d="m 108.62305,190 -6.65235,26 h 16.83399 l 6.68554,-26 z" /><path
     id="path5620"
     style="fill:#2d89cc;fill-opacity:0.943182"
     d="m 86.494141,190 -6.652344,26 h 16.96875 l 6.652343,-26 z" /><path
     id="path5618"
     style="fill:#2d89cc;fill-opacity:0.943182"
     d="m 64.277344,190 -6.685547,26 h 17.089844 l 6.65039,-26 z" /><path
     id="path5616"
     style="fill:#2d89cc;fill-opacity:0.943182"
     d="m 38.525391,190 -4.09375,16 h 9.548828 l 4.115234,-16 z" /><path
     id="path5614"
     style="fill:#2d89cc;fill-opacity:0.943182"
     d="m 24.806641,190 -4.09375,16 h 9.589843 l 4.09375,-16 z" /><path
     id="path5612"
     style="fill:#2d89cc;fill-opacity:0.943182"
     d="m 11.001953,190 -4.1152342,16 h 9.6953122 l 4.095703,-16 z" /><path
     id="path5610"
     style="fill:#2d89cc;fill-opacity:0.943182"
     d="m 210.85352,170 -9.72266,38 h 24.4668 l 9.77148,-38 z" /><path
     id="path5608"
     style="fill:#2d89cc;fill-opacity:0.943182"
     d="m 180.14062,170 -9.72265,38 h 24.51953 l 9.72266,-38 z" /><path
     id="path5606"
     style="fill:#2d89cc;fill-opacity:0.943182"
     d="m 149.33594,170 -9.77344,38 h 24.66211 l 9.72266,-38 z" /><path
     id="path5604"
     style="fill:#2d89cc;fill-opacity:0.943182"
     d="m 43.642578,170 -4.09375,16 h 9.574219 l 4.115234,-16 z" /><path
     id="path5602"
     style="fill:#2d89cc;fill-opacity:0.943182"
     d="m 29.923828,170 -4.095703,16 h 9.591797 l 4.09375,-16 z" /><path
     id="path5600"
     style="fill:#2d89cc;fill-opacity:0.943182"
     d="m 16.144531,170 -4.115234,16 h 9.669922 l 4.095703,-16 z" /><path
     id="path5598"
     style="fill:#2d89cc;fill-opacity:0.943182"
     d="m 117.06641,157 -7.16407,28 h 16.87305 l 7.20117,-28 z" /><path
     id="path5596"
     style="fill:#2d89cc;fill-opacity:0.943182"
     d="m 94.9375,157 -7.164062,28 h 16.966792 l 7.16407,-28 z" /><path
     id="path5594"
     style="fill:#2d89cc;fill-opacity:0.943182"
     d="M 72.763672,157 65.5625,185 h 17.048828 l 7.166016,-28 z" /><path
     id="path5592"
     style="fill:#2d89cc;fill-opacity:0.943182"
     d="m 222.10938,126 -9.72071,38 h 24.52344 l 9.77344,-38 z" /><path
     id="path5590"
     style="fill:#2d89cc;fill-opacity:0.943182"
     d="m 191.39844,126 -9.72266,38 h 24.51953 l 9.72266,-38 z" /><path
     id="path5588"
     style="fill:#2d89cc;fill-opacity:0.943182"
     d="m 160.65234,126 -9.77343,38 h 24.60351 l 9.72266,-38 z" /><path
     id="path5586"
     style="fill:#2d89cc;fill-opacity:0.943182"
     d="m 124.99805,126 -6.65235,26 h 16.91797 l 6.68555,-26 z" /><path
     id="path5584"
     style="fill:#2d89cc;fill-opacity:0.943182"
     d="m 102.86914,126 -6.652343,26 h 16.968753 l 6.65234,-26 z" /><path
     id="path5582"
     style="fill:#2d89cc;fill-opacity:0.943182"
     d="m 80.736328,126 -6.685547,26 h 17.00586 l 6.65039,-26 z" /><path
     id="path5580"
     style="fill:#2d89cc;fill-opacity:0.943182"
     d="m 233.36719,82 -9.72071,38 h 24.58204 L 258,82 Z" /><path
     id="path5578"
     style="fill:#2d89cc;fill-opacity:0.943182"
     d="m 202.65625,82 -9.72266,38 h 24.51758 l 9.72461,-38 z" /><path
     id="path5576"
     style="fill:#2d89cc;fill-opacity:0.943182"
     d="m 171.96875,82 -9.77344,38 h 24.54492 l 9.72266,-38 z" /><path
     id="path5574"
     style="fill:#f8bf13;fill-opacity:0.943182"
     d="m 46,2 v 25.15625 c -3.419,0.601 -6.579547,1.949 -9.310547,3.875 l -17.802734,-17.800781 -5.65625,5.65625 17.804687,17.80664 C 29.116156,39.424359 27.771781,42.584 27.175781,46 H 2 v 8 0.002 h 25.177734 c 0.598,3.424 1.946047,6.589219 3.873047,9.324219 l -17.802734,17.804687 5.65625,5.65625 17.802734,-17.804687 C 39.434031,70.900422 42.59,72.24475 46,72.84375 V 98 h 8 V 72.851562 c 3.425,-0.594 6.593078,-1.941234 9.330078,-3.865234 l 17.783203,17.783203 5.65625,-5.658203 -17.779297,-17.77539 c 1.93,-2.738 3.28286,-5.907938 3.88086,-9.335938 H 98 V 46 H 72.871094 c -0.597,-3.419 -1.943235,-6.581453 -3.865235,-9.314453 l 17.779297,-17.78125 -5.654297,-5.65625 -17.78125,17.779297 C 60.608609,29.095344 57.433,27.744438 54,27.148438 V 2 Z m 4.023438,32.800781 c 8.380999,0 15.199218,6.818219 15.199218,15.199219 0,8.381 -6.818218,15.199219 -15.199218,15.199219 C 41.641437,65.199219 34.824219,58.381 34.824219,50 c 0,-8.381 6.817219,-15.199219 15.199219,-15.199219 z" /></g>
<rect
   style="fill:none;fill-opacity:0.943182;stroke:#2d89cc;stroke-width:3.03555;stroke-linejoin:round;stroke-miterlimit:4;stroke-dasharray:none;stroke-dashoffset:1.86115;stroke-opacity:0.94509804"
   id="rect904"
   width="317.5079"
   height="300.13748"
   x="-0.52035868"
   y="0.56529242" /></svg>
